<?xml version="1.0" encoding="UTF-8" standalone="no"?>
<!-- Created with Inkscape (http://www.inkscape.org/) -->

<svg
   xmlns:dc="http://purl.org/dc/elements/1.1/"
   xmlns:cc="http://creativecommons.org/ns#"
   xmlns:rdf="http://www.w3.org/1999/02/22-rdf-syntax-ns#"
   xmlns:svg="http://www.w3.org/2000/svg"
   xmlns="http://www.w3.org/2000/svg"
   xmlns:sodipodi="http://sodipodi.sourceforge.net/DTD/sodipodi-0.dtd"
   xmlns:inkscape="http://www.inkscape.org/namespaces/inkscape"
   width="121.89566mm"
   height="95.123352mm"
   viewBox="0 0 431.91376 337.05125"
   id="svg2"
   version="1.1"
   inkscape:version="0.91 r13725"
   sodipodi:docname="LFKresult.svg">
  <defs
     id="defs4">
    <clipPath
       id="clipPath4152"
       clipPathUnits="userSpaceOnUse">
      <path
         inkscape:connector-curvature="0"
         id="path4154"
         d="m 960,5527.51 0,-3150.01 4200.01,0 0,3150.01 -4200.01,0 z" />
    </clipPath>
    <clipPath
       id="clipPath4322"
       clipPathUnits="userSpaceOnUse">
      <path
         inkscape:connector-curvature="0"
         id="path4324"
         d="m 1507.5,5287.51 0,-2572.51 3262.51,0 0,2572.51 -3262.51,0 z" />
    </clipPath>
    <clipPath
       id="clipPath4372"
       clipPathUnits="userSpaceOnUse">
      <path
         inkscape:connector-curvature="0"
         id="path4374"
         d="m 960,5527.51 0,-3150.01 4200.01,0 0,3150.01 -4200.01,0 z" />
    </clipPath>
    <clipPath
       id="clipPath4412"
       clipPathUnits="userSpaceOnUse">
      <path
         inkscape:connector-curvature="0"
         id="path4414"
         d="m 3622.51,5235.01 0,-322.5 1110,0 0,322.5 -1110,0 z" />
    </clipPath>
    <clipPath
       id="clipPath4422"
       clipPathUnits="userSpaceOnUse">
      <path
         inkscape:connector-curvature="0"
         id="path4424"
         d="m 960,5527.51 0,-3150.01 4200.01,0 0,3150.01 -4200.01,0 z" />
    </clipPath>
    <clipPath
       id="clipPath4436"
       clipPathUnits="userSpaceOnUse">
      <path
         inkscape:connector-curvature="0"
         id="path4438"
         d="m 3622.51,5235.01 0,-322.5 1110,0 0,322.5 -1110,0 z" />
    </clipPath>
  </defs>
  <sodipodi:namedview
     id="base"
     pagecolor="#ffffff"
     bordercolor="#666666"
     borderopacity="1.0"
     inkscape:pageopacity="0.0"
     inkscape:pageshadow="2"
     inkscape:zoom="0.98994949"
     inkscape:cx="180.14762"
     inkscape:cy="227.98227"
     inkscape:document-units="px"
     inkscape:current-layer="layer1"
     showgrid="false"
     fit-margin-top="0"
     fit-margin-left="0"
     fit-margin-right="0"
     fit-margin-bottom="0"
     inkscape:window-width="1366"
     inkscape:window-height="705"
     inkscape:window-x="-8"
     inkscape:window-y="-8"
     inkscape:window-maximized="1" />
  <metadata
     id="metadata7">
    <rdf:RDF>
      <cc:Work
         rdf:about="">
        <dc:format>image/svg+xml</dc:format>
        <dc:type
           rdf:resource="http://purl.org/dc/dcmitype/StillImage" />
        <dc:title></dc:title>
      </cc:Work>
    </rdf:RDF>
  </metadata>
  <g
     inkscape:label="Capa 1"
     inkscape:groupmode="layer"
     id="layer1"
     transform="translate(-189.75741,-369.55085)">
    <g
       transform="matrix(1.25,0,0,-1.25,21.344913,1031.7396)"
       inkscape:label="LFKresult"
       id="g4144">
      <g
         transform="scale(0.1,0.1)"
         id="g4146">
        <g
           id="g4148">
          <g
             clip-path="url(#clipPath4152)"
             id="g4150">
            <path
               inkscape:connector-curvature="0"
               id="path4156"
               style="fill:none;stroke:#ffffff;stroke-width:5.00001001;stroke-linecap:butt;stroke-linejoin:round;stroke-miterlimit:10;stroke-dasharray:none;stroke-opacity:1"
               d="m 1507.5,2722.5 0,2572.51 3255.01,0 0,-2572.51 -3255.01,0" />
            <path
               inkscape:connector-curvature="0"
               id="path4158"
               style="fill:none;stroke:#000000;stroke-width:5.00001001;stroke-linecap:butt;stroke-linejoin:round;stroke-miterlimit:10;stroke-dasharray:none;stroke-opacity:1"
               d="m 1507.5,5295.01 3255.01,0" />
            <path
               inkscape:connector-curvature="0"
               id="path4160"
               style="fill:none;stroke:#000000;stroke-width:5.00001001;stroke-linecap:butt;stroke-linejoin:round;stroke-miterlimit:10;stroke-dasharray:none;stroke-opacity:1"
               d="m 1507.5,2722.5 3255.01,0" />
            <path
               inkscape:connector-curvature="0"
               id="path4162"
               style="fill:none;stroke:#000000;stroke-width:5.00001001;stroke-linecap:butt;stroke-linejoin:round;stroke-miterlimit:10;stroke-dasharray:none;stroke-opacity:1"
               d="m 4762.51,2722.5 0,2572.51" />
            <path
               inkscape:connector-curvature="0"
               id="path4164"
               style="fill:none;stroke:#000000;stroke-width:5.00001001;stroke-linecap:butt;stroke-linejoin:round;stroke-miterlimit:10;stroke-dasharray:none;stroke-opacity:1"
               d="m 1507.5,2722.5 0,2572.51" />
            <path
               inkscape:connector-curvature="0"
               id="path4166"
               style="fill:none;stroke:#000000;stroke-width:5.00001001;stroke-linecap:butt;stroke-linejoin:round;stroke-miterlimit:10;stroke-dasharray:none;stroke-opacity:1"
               d="m 1507.5,2722.5 3255.01,0" />
            <path
               inkscape:connector-curvature="0"
               id="path4168"
               style="fill:none;stroke:#000000;stroke-width:5.00001001;stroke-linecap:butt;stroke-linejoin:round;stroke-miterlimit:10;stroke-dasharray:none;stroke-opacity:1"
               d="m 1507.5,2722.5 0,2572.51" />
            <path
               inkscape:connector-curvature="0"
               id="path4170"
               style="fill:none;stroke:#000000;stroke-width:5.00001001;stroke-linecap:butt;stroke-linejoin:round;stroke-miterlimit:10;stroke-dasharray:none;stroke-opacity:1"
               d="m 2032.5,2722.5 0,37.5" />
            <path
               inkscape:connector-curvature="0"
               id="path4172"
               style="fill:none;stroke:#000000;stroke-width:5.00001001;stroke-linecap:butt;stroke-linejoin:round;stroke-miterlimit:10;stroke-dasharray:none;stroke-opacity:1"
               d="m 2032.5,5287.51 0,-30" />
            <g
               transform="scale(10,10)"
               id="g4174">
              <text
                 id="text4176"
                 style="font-variant:normal;font-weight:normal;font-size:10px;font-family:'Helvetica Neue LT Std';-inkscape-font-specification:Helvetica;writing-mode:lr-tb;fill:#000000;fill-opacity:1;fill-rule:nonzero;stroke:none"
                 transform="matrix(1,0,0,-1,195,260.25)">
                <tspan
                   id="tspan4178"
                   sodipodi:role="line"
                   y="0"
                   x="0 5.8400002 11.4">−15</tspan>
              </text>
            </g>
            <path
               inkscape:connector-curvature="0"
               id="path4180"
               style="fill:none;stroke:#000000;stroke-width:5.00001001;stroke-linecap:butt;stroke-linejoin:round;stroke-miterlimit:10;stroke-dasharray:none;stroke-opacity:1"
               d="m 2572.5,2722.5 0,37.5" />
            <path
               inkscape:connector-curvature="0"
               id="path4182"
               style="fill:none;stroke:#000000;stroke-width:5.00001001;stroke-linecap:butt;stroke-linejoin:round;stroke-miterlimit:10;stroke-dasharray:none;stroke-opacity:1"
               d="m 2572.5,5287.51 0,-30" />
            <g
               transform="scale(10,10)"
               id="g4184">
              <text
                 id="text4186"
                 style="font-variant:normal;font-weight:normal;font-size:10px;font-family:'Helvetica Neue LT Std';-inkscape-font-specification:Helvetica;writing-mode:lr-tb;fill:#000000;fill-opacity:1;fill-rule:nonzero;stroke:none"
                 transform="matrix(1,0,0,-1,249,260.25)">
                <tspan
                   id="tspan4188"
                   sodipodi:role="line"
                   y="0"
                   x="0 5.8400002 11.4">−10</tspan>
              </text>
            </g>
            <path
               inkscape:connector-curvature="0"
               id="path4190"
               style="fill:none;stroke:#000000;stroke-width:5.00001001;stroke-linecap:butt;stroke-linejoin:round;stroke-miterlimit:10;stroke-dasharray:none;stroke-opacity:1"
               d="m 3120,2722.5 0,37.5" />
            <path
               inkscape:connector-curvature="0"
               id="path4192"
               style="fill:none;stroke:#000000;stroke-width:5.00001001;stroke-linecap:butt;stroke-linejoin:round;stroke-miterlimit:10;stroke-dasharray:none;stroke-opacity:1"
               d="m 3120,5287.51 0,-30" />
            <g
               transform="scale(10,10)"
               id="g4194">
              <text
                 id="text4196"
                 style="font-variant:normal;font-weight:normal;font-size:10px;font-family:'Helvetica Neue LT Std';-inkscape-font-specification:Helvetica;writing-mode:lr-tb;fill:#000000;fill-opacity:1;fill-rule:nonzero;stroke:none"
                 transform="matrix(1,0,0,-1,306.75,260.25)">
                <tspan
                   id="tspan4198"
                   sodipodi:role="line"
                   y="0"
                   x="0 5.8400002">−5</tspan>
              </text>
            </g>
            <path
               inkscape:connector-curvature="0"
               id="path4200"
               style="fill:none;stroke:#000000;stroke-width:5.00001001;stroke-linecap:butt;stroke-linejoin:round;stroke-miterlimit:10;stroke-dasharray:none;stroke-opacity:1"
               d="m 3660.01,2722.5 0,37.5" />
            <path
               inkscape:connector-curvature="0"
               id="path4202"
               style="fill:none;stroke:#000000;stroke-width:5.00001001;stroke-linecap:butt;stroke-linejoin:round;stroke-miterlimit:10;stroke-dasharray:none;stroke-opacity:1"
               d="m 3660.01,5287.51 0,-30" />
            <g
               transform="scale(10,10)"
               id="g4204">
              <text
                 id="text4206"
                 style="font-variant:normal;font-weight:normal;font-size:10px;font-family:'Helvetica Neue LT Std';-inkscape-font-specification:Helvetica;writing-mode:lr-tb;fill:#000000;fill-opacity:1;fill-rule:nonzero;stroke:none"
                 transform="matrix(1,0,0,-1,363.751,260.25)">
                <tspan
                   id="tspan4208"
                   y="0"
                   x="0">0</tspan>
              </text>
            </g>
            <path
               inkscape:connector-curvature="0"
               id="path4210"
               style="fill:none;stroke:#000000;stroke-width:5.00001001;stroke-linecap:butt;stroke-linejoin:round;stroke-miterlimit:10;stroke-dasharray:none;stroke-opacity:1"
               d="m 4200.01,2722.5 0,37.5" />
            <path
               inkscape:connector-curvature="0"
               id="path4212"
               style="fill:none;stroke:#000000;stroke-width:5.00001001;stroke-linecap:butt;stroke-linejoin:round;stroke-miterlimit:10;stroke-dasharray:none;stroke-opacity:1"
               d="m 4200.01,5287.51 0,-30" />
            <g
               transform="scale(10,10)"
               id="g4214">
              <text
                 id="text4216"
                 style="font-variant:normal;font-weight:normal;font-size:10px;font-family:'Helvetica Neue LT Std';-inkscape-font-specification:Helvetica;writing-mode:lr-tb;fill:#000000;fill-opacity:1;fill-rule:nonzero;stroke:none"
                 transform="matrix(1,0,0,-1,417.751,260.25)">
                <tspan
                   id="tspan4218"
                   y="0"
                   x="0">5</tspan>
              </text>
            </g>
            <path
               inkscape:connector-curvature="0"
               id="path4220"
               style="fill:none;stroke:#000000;stroke-width:5.00001001;stroke-linecap:butt;stroke-linejoin:round;stroke-miterlimit:10;stroke-dasharray:none;stroke-opacity:1"
               d="m 4747.51,2722.5 0,37.5" />
            <path
               inkscape:connector-curvature="0"
               id="path4222"
               style="fill:none;stroke:#000000;stroke-width:5.00001001;stroke-linecap:butt;stroke-linejoin:round;stroke-miterlimit:10;stroke-dasharray:none;stroke-opacity:1"
               d="m 4747.51,5287.51 0,-30" />
            <g
               transform="scale(10,10)"
               id="g4224">
              <text
                 id="text4226"
                 style="font-variant:normal;font-weight:normal;font-size:10px;font-family:'Helvetica Neue LT Std';-inkscape-font-specification:Helvetica;writing-mode:lr-tb;fill:#000000;fill-opacity:1;fill-rule:nonzero;stroke:none"
                 transform="matrix(1,0,0,-1,469.501,260.25)">
                <tspan
                   id="tspan4228"
                   sodipodi:role="line"
                   y="0"
                   x="0 5.5599999">10</tspan>
              </text>
            </g>
            <path
               inkscape:connector-curvature="0"
               id="path4230"
               style="fill:none;stroke:#000000;stroke-width:5.00001001;stroke-linecap:butt;stroke-linejoin:round;stroke-miterlimit:10;stroke-dasharray:none;stroke-opacity:1"
               d="m 1507.5,2895 30,0" />
            <path
               inkscape:connector-curvature="0"
               id="path4232"
               style="fill:none;stroke:#000000;stroke-width:5.00001001;stroke-linecap:butt;stroke-linejoin:round;stroke-miterlimit:10;stroke-dasharray:none;stroke-opacity:1"
               d="m 4762.51,2895 -37.5,0" />
            <g
               transform="scale(10,10)"
               id="g4234">
              <text
                 id="text4236"
                 style="font-variant:normal;font-weight:normal;font-size:10px;font-family:'Helvetica Neue LT Std';-inkscape-font-specification:Helvetica;writing-mode:lr-tb;fill:#000000;fill-opacity:1;fill-rule:nonzero;stroke:none"
                 transform="matrix(1,0,0,-1,134.25,285.75)">
                <tspan
                   id="tspan4238"
                   sodipodi:role="line"
                   y="0"
                   x="0 5.8400002 11.4">−30</tspan>
              </text>
            </g>
            <path
               inkscape:connector-curvature="0"
               id="path4240"
               style="fill:none;stroke:#000000;stroke-width:5.00001001;stroke-linecap:butt;stroke-linejoin:round;stroke-miterlimit:10;stroke-dasharray:none;stroke-opacity:1"
               d="m 1507.5,3217.51 30,0" />
            <path
               inkscape:connector-curvature="0"
               id="path4242"
               style="fill:none;stroke:#000000;stroke-width:5.00001001;stroke-linecap:butt;stroke-linejoin:round;stroke-miterlimit:10;stroke-dasharray:none;stroke-opacity:1"
               d="m 4762.51,3217.51 -37.5,0" />
            <g
               transform="scale(10,10)"
               id="g4244">
              <text
                 id="text4246"
                 style="font-variant:normal;font-weight:normal;font-size:10px;font-family:'Helvetica Neue LT Std';-inkscape-font-specification:Helvetica;writing-mode:lr-tb;fill:#000000;fill-opacity:1;fill-rule:nonzero;stroke:none"
                 transform="matrix(1,0,0,-1,134.25,318.001)">
                <tspan
                   id="tspan4248"
                   sodipodi:role="line"
                   y="0"
                   x="0 5.8400002 11.4">−25</tspan>
              </text>
            </g>
            <path
               inkscape:connector-curvature="0"
               id="path4250"
               style="fill:none;stroke:#000000;stroke-width:5.00001001;stroke-linecap:butt;stroke-linejoin:round;stroke-miterlimit:10;stroke-dasharray:none;stroke-opacity:1"
               d="m 1507.5,3540.01 30,0" />
            <path
               inkscape:connector-curvature="0"
               id="path4252"
               style="fill:none;stroke:#000000;stroke-width:5.00001001;stroke-linecap:butt;stroke-linejoin:round;stroke-miterlimit:10;stroke-dasharray:none;stroke-opacity:1"
               d="m 4762.51,3540.01 -37.5,0" />
            <g
               transform="scale(10,10)"
               id="g4254">
              <text
                 id="text4256"
                 style="font-variant:normal;font-weight:normal;font-size:10px;font-family:'Helvetica Neue LT Std';-inkscape-font-specification:Helvetica;writing-mode:lr-tb;fill:#000000;fill-opacity:1;fill-rule:nonzero;stroke:none"
                 transform="matrix(1,0,0,-1,134.25,350.251)">
                <tspan
                   id="tspan4258"
                   sodipodi:role="line"
                   y="0"
                   x="0 5.8400002 11.4">−20</tspan>
              </text>
            </g>
            <path
               inkscape:connector-curvature="0"
               id="path4260"
               style="fill:none;stroke:#000000;stroke-width:5.00001001;stroke-linecap:butt;stroke-linejoin:round;stroke-miterlimit:10;stroke-dasharray:none;stroke-opacity:1"
               d="m 1507.5,3862.51 30,0" />
            <path
               inkscape:connector-curvature="0"
               id="path4262"
               style="fill:none;stroke:#000000;stroke-width:5.00001001;stroke-linecap:butt;stroke-linejoin:round;stroke-miterlimit:10;stroke-dasharray:none;stroke-opacity:1"
               d="m 4762.51,3862.51 -37.5,0" />
            <g
               transform="scale(10,10)"
               id="g4264">
              <text
                 id="text4266"
                 style="font-variant:normal;font-weight:normal;font-size:10px;font-family:'Helvetica Neue LT Std';-inkscape-font-specification:Helvetica;writing-mode:lr-tb;fill:#000000;fill-opacity:1;fill-rule:nonzero;stroke:none"
                 transform="matrix(1,0,0,-1,134.25,382.501)">
                <tspan
                   id="tspan4268"
                   sodipodi:role="line"
                   y="0"
                   x="0 5.8400002 11.4">−15</tspan>
              </text>
            </g>
            <path
               inkscape:connector-curvature="0"
               id="path4270"
               style="fill:none;stroke:#000000;stroke-width:5.00001001;stroke-linecap:butt;stroke-linejoin:round;stroke-miterlimit:10;stroke-dasharray:none;stroke-opacity:1"
               d="m 1507.5,4177.51 30,0" />
            <path
               inkscape:connector-curvature="0"
               id="path4272"
               style="fill:none;stroke:#000000;stroke-width:5.00001001;stroke-linecap:butt;stroke-linejoin:round;stroke-miterlimit:10;stroke-dasharray:none;stroke-opacity:1"
               d="m 4762.51,4177.51 -37.5,0" />
            <g
               transform="scale(10,10)"
               id="g4274">
              <text
                 id="text4276"
                 style="font-variant:normal;font-weight:normal;font-size:10px;font-family:'Helvetica Neue LT Std';-inkscape-font-specification:Helvetica;writing-mode:lr-tb;fill:#000000;fill-opacity:1;fill-rule:nonzero;stroke:none"
                 transform="matrix(1,0,0,-1,134.25,414.001)">
                <tspan
                   id="tspan4278"
                   sodipodi:role="line"
                   y="0"
                   x="0 5.8400002 11.4">−10</tspan>
              </text>
            </g>
            <path
               inkscape:connector-curvature="0"
               id="path4280"
               style="fill:none;stroke:#000000;stroke-width:5.00001001;stroke-linecap:butt;stroke-linejoin:round;stroke-miterlimit:10;stroke-dasharray:none;stroke-opacity:1"
               d="m 1507.5,4500.01 30,0" />
            <path
               inkscape:connector-curvature="0"
               id="path4282"
               style="fill:none;stroke:#000000;stroke-width:5.00001001;stroke-linecap:butt;stroke-linejoin:round;stroke-miterlimit:10;stroke-dasharray:none;stroke-opacity:1"
               d="m 4762.51,4500.01 -37.5,0" />
            <g
               transform="scale(10,10)"
               id="g4284">
              <text
                 id="text4286"
                 style="font-variant:normal;font-weight:normal;font-size:10px;font-family:'Helvetica Neue LT Std';-inkscape-font-specification:Helvetica;writing-mode:lr-tb;fill:#000000;fill-opacity:1;fill-rule:nonzero;stroke:none"
                 transform="matrix(1,0,0,-1,139.5,446.251)">
                <tspan
                   id="tspan4288"
                   sodipodi:role="line"
                   y="0"
                   x="0 5.8400002">−5</tspan>
              </text>
            </g>
            <path
               inkscape:connector-curvature="0"
               id="path4290"
               style="fill:none;stroke:#000000;stroke-width:5.00001001;stroke-linecap:butt;stroke-linejoin:round;stroke-miterlimit:10;stroke-dasharray:none;stroke-opacity:1"
               d="m 1507.5,4822.51 30,0" />
            <path
               inkscape:connector-curvature="0"
               id="path4292"
               style="fill:none;stroke:#000000;stroke-width:5.00001001;stroke-linecap:butt;stroke-linejoin:round;stroke-miterlimit:10;stroke-dasharray:none;stroke-opacity:1"
               d="m 4762.51,4822.51 -37.5,0" />
            <g
               transform="scale(10,10)"
               id="g4294">
              <text
                 id="text4296"
                 style="font-variant:normal;font-weight:normal;font-size:10px;font-family:'Helvetica Neue LT Std';-inkscape-font-specification:Helvetica;writing-mode:lr-tb;fill:#000000;fill-opacity:1;fill-rule:nonzero;stroke:none"
                 transform="matrix(1,0,0,-1,142.5,478.501)">
                <tspan
                   id="tspan4298"
                   y="0"
                   x="0">0</tspan>
              </text>
            </g>
            <path
               inkscape:connector-curvature="0"
               id="path4300"
               style="fill:none;stroke:#000000;stroke-width:5.00001001;stroke-linecap:butt;stroke-linejoin:round;stroke-miterlimit:10;stroke-dasharray:none;stroke-opacity:1"
               d="m 1507.5,5145.01 30,0" />
            <path
               inkscape:connector-curvature="0"
               id="path4302"
               style="fill:none;stroke:#000000;stroke-width:5.00001001;stroke-linecap:butt;stroke-linejoin:round;stroke-miterlimit:10;stroke-dasharray:none;stroke-opacity:1"
               d="m 4762.51,5145.01 -37.5,0" />
            <g
               transform="scale(10,10)"
               id="g4304">
              <text
                 id="text4306"
                 style="font-variant:normal;font-weight:normal;font-size:10px;font-family:'Helvetica Neue LT Std';-inkscape-font-specification:Helvetica;writing-mode:lr-tb;fill:#000000;fill-opacity:1;fill-rule:nonzero;stroke:none"
                 transform="matrix(1,0,0,-1,142.5,510.751)">
                <tspan
                   id="tspan4308"
                   y="0"
                   x="0">5</tspan>
              </text>
            </g>
            <path
               inkscape:connector-curvature="0"
               id="path4310"
               style="fill:none;stroke:#000000;stroke-width:5.00001001;stroke-linecap:butt;stroke-linejoin:round;stroke-miterlimit:10;stroke-dasharray:none;stroke-opacity:1"
               d="m 1507.5,5295.01 3255.01,0" />
            <path
               inkscape:connector-curvature="0"
               id="path4312"
               style="fill:none;stroke:#000000;stroke-width:5.00001001;stroke-linecap:butt;stroke-linejoin:round;stroke-miterlimit:10;stroke-dasharray:none;stroke-opacity:1"
               d="m 1507.5,2722.5 3255.01,0" />
            <path
               inkscape:connector-curvature="0"
               id="path4314"
               style="fill:none;stroke:#000000;stroke-width:5.00001001;stroke-linecap:butt;stroke-linejoin:round;stroke-miterlimit:10;stroke-dasharray:none;stroke-opacity:1"
               d="m 4762.51,2722.5 0,2572.51" />
            <path
               inkscape:connector-curvature="0"
               id="path4316"
               style="fill:none;stroke:#000000;stroke-width:5.00001001;stroke-linecap:butt;stroke-linejoin:round;stroke-miterlimit:10;stroke-dasharray:none;stroke-opacity:1"
               d="m 1507.5,2722.5 0,2572.51" />
          </g>
        </g>
        <g
           id="g4318">
          <g
             clip-path="url(#clipPath4322)"
             id="g4320">
            <path
               inkscape:connector-curvature="0"
               id="path4326"
               style="fill:none;stroke:#ff0000;stroke-width:5.00001001;stroke-linecap:butt;stroke-linejoin:round;stroke-miterlimit:10;stroke-dasharray:none;stroke-opacity:1"
               d="m 4102.51,4380.01 7.5,0 7.5,-7.5 7.5,-7.5 7.5,-7.5 7.5,-7.5 7.5,0 15,-15 0,-7.5 15,-15 0,-15 7.5,-7.5 0,-45 7.5,0 7.5,-7.5 7.5,0 7.5,-7.5 7.5,-7.5 15,0 7.5,-7.5 7.5,0 7.5,-7.5 7.5,-7.5 15,-15 0,-7.5 7.5,-7.5 7.5,-7.5 7.5,0 7.5,-7.5 7.5,-7.5 7.5,0 7.5,-7.5 7.5,0 7.5,-7.5 7.5,0 7.5,-7.5 7.5,-7.5 7.5,0 7.5,-7.5 7.5,-7.5 15,-15 0,-7.5 15,-15 0,-7.5 7.5,-7.5 0,-22.5 7.5,-7.5 0,-30 7.5,-7.5 7.5,0 7.5,-7.5 7.5,0 7.5,-7.5 7.5,-7.5 7.5,0 7.5,-7.5 7.5,0 7.5,-7.5 22.5,0 7.5,-7.5 45,0 7.5,7.5 7.5,7.5 0,22.5 -7.5,-7.5 -7.5,0 -15,-15 0,-15 7.5,0 7.5,-7.5 7.5,0 7.5,-7.5 7.5,0 15,-15 0,-15 15,-15 0,-67.5 7.5,-7.5 0,-22.5 -15,-15 0,-7.5 -15,-15 0,-7.5 -15,-15 0,-7.5 -7.5,-7.5 -15,-15 0,-15 -7.5,-7.5 -15,-15 0,-15 -7.5,0" />
            <path
               inkscape:connector-curvature="0"
               id="path4328"
               style="fill:none;stroke:#ff0000;stroke-width:5.00001001;stroke-linecap:butt;stroke-linejoin:round;stroke-miterlimit:10;stroke-dasharray:none;stroke-opacity:1"
               d="m 3442.51,4792.51 22.5,0 7.5,7.5 30,0 7.5,7.5 52.5,0 7.5,7.5 45,0 7.5,7.5 157.5,0 7.5,-7.5 30,0 7.5,-7.5 90,0 7.5,-7.5 15,0 7.5,-7.5 7.5,0 7.5,-7.5 7.5,0 7.5,-7.5 7.5,0 7.5,-7.5 7.5,-7.5 7.5,0 7.5,-7.5 7.5,0 7.5,-7.5 7.5,0 7.5,-7.5 7.5,0 7.5,-7.5 7.5,-7.5 7.5,-7.5 0,-15 7.5,-7.5 0,-15 7.5,-7.5 0,-120 -7.5,-7.5 0,-37.5 -7.5,-7.5 0,-90 7.5,-7.5 7.5,-7.5 7.5,-7.5 7.5,-7.5" />
            <path
               inkscape:connector-curvature="0"
               id="path4330"
               style="fill:none;stroke:#ff0000;stroke-width:5.00001001;stroke-linecap:butt;stroke-linejoin:round;stroke-miterlimit:10;stroke-dasharray:none;stroke-opacity:1"
               d="m 2700,4680.01 30,0 7.5,7.5 22.5,0 7.5,7.5 15,0 7.5,7.5 45,0 7.5,7.5 52.5,0 7.5,7.5 45,0 7.5,7.5 52.5,0 7.5,7.5 45,0 7.5,7.5 52.5,0 7.5,7.5 52.5,0 7.5,7.5 37.5,0 7.5,7.5 37.5,0 7.5,7.5 45,0 7.51,7.5 45,0 7.5,7.5 37.5,0 7.5,7.5 15,0" />
            <path
               inkscape:connector-curvature="0"
               id="path4332"
               style="fill:none;stroke:#ff0000;stroke-width:5.00001001;stroke-linecap:butt;stroke-linejoin:round;stroke-miterlimit:10;stroke-dasharray:none;stroke-opacity:1"
               d="m 1957.5,4620.01 30,0 7.5,7.5 97.5,0 7.5,7.5 67.5,0 7.5,7.5 90,0 7.5,7.5 82.5,0 7.5,7.5 75,0 7.5,7.5 105,0 7.5,7.5 112.5,0 7.5,7.5 22.5,0" />
            <path
               inkscape:connector-curvature="0"
               id="path4334"
               style="fill:none;stroke:#ff0000;stroke-width:5.00001001;stroke-linecap:butt;stroke-linejoin:round;stroke-miterlimit:10;stroke-dasharray:none;stroke-opacity:1"
               d="m 2175,3367.51 7.5,7.5 0,60 7.5,7.5 0,45 -7.5,7.5 -7.5,7.5 -7.5,7.5 -7.5,7.5 -7.5,7.5 -7.5,7.5 -7.5,7.5 -7.5,0 -7.5,7.5 -7.5,7.5 -7.5,7.5 -15,15 0,15 -15,15 0,45 -7.5,7.5 0,45 -7.5,7.5 -7.5,7.5 -7.5,7.5 -7.5,7.5 -7.5,7.5 -7.5,7.5 -7.5,7.5 -7.5,7.5 -7.5,7.5 -7.5,0 -15,15 0,15 -15,15 0,7.5 -7.5,7.5 0,15 -7.5,7.5 0,22.5 -7.5,7.5 0,45 -7.5,7.5 -7.5,7.5 -7.5,7.5 -7.5,7.5 -7.5,7.5 -7.5,0 -7.5,7.5 -7.5,7.5 -7.5,7.5 -7.5,7.5 -7.5,7.5 -15,15 0,15 -15,15 0,15 -7.5,7.5 0,37.5 -7.5,7.5 0,22.5 -7.5,7.5 0,15 -15,15 0,7.5 -15,15 0,15 -7.5,7.5 0,22.5 -7.5,7.5 0,60 15,15 0,37.5 -7.5,7.5 0,105 15,15 0,15 7.5,7.5 15,15 0,45 7.5,7.5 7.5,7.5 7.5,7.5 7.5,7.5 7.5,0 7.5,7.5 52.5,0 7.5,7.5 45,0" />
            <path
               inkscape:connector-curvature="0"
               id="path4336"
               style="fill:none;stroke:#ff0000;stroke-width:5.00001001;stroke-linecap:butt;stroke-linejoin:round;stroke-miterlimit:10;stroke-dasharray:none;stroke-opacity:1"
               d="m 2782.5,2850 -7.5,-7.5 -15,0 -7.5,-7.5 -15,0 -7.5,-7.5 -22.5,0 -7.5,-7.5 -52.5,0 -7.5,-7.5 -15,0 -7.5,-7.5 -45,0 -7.5,-7.5 -75,0 -7.5,-7.5 -45,0 -7.5,7.5 -22.5,0 -7.5,7.5 -22.5,0 -7.5,7.5 -7.5,0 -7.5,7.5 -7.5,0 -7.5,7.5 -7.5,0 -7.5,7.5 -7.5,0 -7.5,7.5 -7.5,0 -7.5,7.5 -7.5,7.5 -7.5,0 -7.5,7.5 -7.5,7.5 -15,15 0,15 -7.5,7.5 0,45 -7.5,7.5 0,22.5 7.5,7.5 0,22.5 -7.5,7.5 -7.5,7.5 -15,15 0,7.5 -7.5,7.5 -7.5,7.5 -15,15 0,7.5 -7.5,7.5 0,15 -7.5,7.5 0,22.5 -7.5,7.5 0,150.01 7.5,7.5 0,30 7.5,7.5 0,22.5" />
            <path
               inkscape:connector-curvature="0"
               id="path4338"
               style="fill:none;stroke:#ff0000;stroke-width:5.00001001;stroke-linecap:butt;stroke-linejoin:round;stroke-miterlimit:10;stroke-dasharray:none;stroke-opacity:1"
               d="m 3525.01,3127.5 -7.5,-7.5 -15,0 -7.5,-7.5 -15,0 -7.5,-7.5 -15,0 -7.5,-7.5 -15,0 -7.5,-7.5 -15,0 -7.5,-7.5 -15,0 -7.5,-7.5 -7.5,0 -7.5,-7.5 -15,0 -7.5,-7.5 -7.5,0 -7.5,-7.5 -7.51,0 -7.5,-7.5 -7.5,0 -7.5,-7.5 -7.5,0 -7.5,-7.5 -22.5,0 -7.5,-7.5 -37.5,0 -7.5,-7.5 -37.5,0 -7.5,-7.5 -30,0 -7.5,-7.5 -22.5,0 -7.5,-7.5 -15,0 -7.5,-7.5 -22.5,0 -7.5,-7.5 -30,0 -7.5,-7.5 -7.5,0 -7.5,-7.5 -7.5,0 -7.5,-7.5 -7.5,0 -7.5,-7.5 -7.5,0 -7.5,-7.5 -7.5,0 -7.5,-7.5 -7.5,0 -7.5,-7.5 -7.5,-7.5 -7.5,-7.5 -7.5,-7.5 -7.5,0 -7.5,-7.5 -7.5,-7.5 -7.5,-7.5 -15,0 -7.5,-7.5 -7.5,0 -7.5,-7.5 -7.5,0 -7.5,-7.5 -7.5,0 -7.5,-7.5 -15,0" />
            <path
               inkscape:connector-curvature="0"
               id="path4340"
               style="fill:none;stroke:#ff0000;stroke-width:5.00001001;stroke-linecap:butt;stroke-linejoin:round;stroke-miterlimit:10;stroke-dasharray:none;stroke-opacity:1"
               d="m 4267.51,3255.01 -120,0 -7.5,-7.5 -60,0 -7.5,-7.5 -45,0 -7.5,-7.5 -60,0 -7.5,-7.5 -60,0 -7.5,-7.5 -45,0 -7.5,-7.5 -45,0 -7.5,-7.5 -37.5,0 -7.5,-7.5 -15,0 -7.5,-7.5 -15,0 -7.5,-7.5 -7.5,0 -7.5,-7.5 -7.5,0 -7.5,-7.5 -7.5,0 -7.5,-7.51 -22.5,0 -7.5,-7.5 -15,0 -7.5,-7.5 -22.5,0 -7.5,-7.5 -15,0 -7.5,-7.5 -15,0" />
            <path
               inkscape:connector-curvature="0"
               id="path4342"
               style="fill:none;stroke:#ff0000;stroke-width:5.00001001;stroke-linecap:butt;stroke-linejoin:round;stroke-miterlimit:10;stroke-dasharray:none;stroke-opacity:1"
               d="m 4290.01,4140.01 0,-15 15,-15 0,-82.5 7.5,-7.5 7.5,-7.5 7.5,-7.5 7.5,-7.5 7.5,-7.5 7.5,-7.5 7.5,0 7.5,-7.5 7.5,-7.5 7.5,-7.5 15,-15 0,-15 7.5,-7.5 7.5,-7.5 0,-15 7.5,-7.5 0,-22.5 -7.5,-7.5 0,-45 7.5,0 7.5,-7.5 7.5,-7.5 7.5,0 7.5,-7.5 7.5,-7.5 7.5,0 7.5,-7.5 7.5,0 7.5,-7.5 7.5,-7.5 15,-15 0,-15 7.5,-7.5 7.5,-7.5 7.5,-7.5 0,-37.5 7.5,-7.5 0,-7.5 15,-15 0,-7.5 7.5,-7.5 15,-15 0,-30 15,-15 0,-37.5 -7.5,-7.5 0,-52.5 -7.5,-7.5 0,-15 -15,-15 0,-37.5 7.5,-7.5 0,-15 7.5,-7.5 0,-15 -15,-15 0,-7.5 -7.5,-7.5 -15,-15 0,-7.5 -7.5,-7.5 -7.5,0 -7.5,-7.5 -37.5,0 -7.5,-7.5 -60,0 -7.5,-7.5 -67.5,0 -7.5,-7.5 -52.5,0 -7.5,-7.5" />
            <path
               inkscape:connector-curvature="0"
               id="path4344"
               style="fill:none;stroke:#ff0000;stroke-width:5.00001001;stroke-linecap:butt;stroke-linejoin:round;stroke-miterlimit:10;stroke-dasharray:none;stroke-opacity:1"
               d="m 3652.51,4687.51 30,0 7.5,-7.5 7.5,-7.5 0,-30 7.5,-7.5 -15,-15 7.5,0 -7.5,0 7.5,-7.5 7.5,-7.5 7.5,-7.5 7.5,-7.5 7.5,-7.5 7.5,-7.5 7.5,-7.5 0,-15 7.5,-7.5 0,-15 7.5,-7.5 0,-15 7.5,-7.5 7.5,-7.5 15,-15 0,-7.5 7.5,-7.5 0,-37.5 7.5,-7.5 7.5,-7.5 7.5,0 7.5,-7.5 7.5,0 7.5,-7.5 7.5,0 7.5,-7.5 7.5,-7.5 7.5,0 7.5,-7.5 7.5,0 7.5,-7.5 7.5,0 7.5,-7.5 22.5,0 7.5,-7.5 22.5,0 7.5,-7.5 22.5,0 7.5,-7.5 30,0 7.5,-7.5 22.5,0 7.5,-7.5 30,0 7.5,-7.5 30,0 7.5,-7.5 22.5,0 7.5,-7.5 7.5,-7.5 7.5,0 7.5,-7.5 7.5,-7.5 7.5,-7.5 0,-15 7.5,-7.5 0,-30 -7.5,-7.5 7.5,0 7.5,-7.5 7.5,-7.5 7.5,-7.5 7.5,-7.5 7.5,0 7.5,-7.5 7.5,-7.5 7.5,-7.5 7.5,-7.5 7.5,-7.5" />
            <path
               inkscape:connector-curvature="0"
               id="path4346"
               style="fill:none;stroke:#ff0000;stroke-width:5.00001001;stroke-linecap:butt;stroke-linejoin:round;stroke-miterlimit:10;stroke-dasharray:none;stroke-opacity:1"
               d="m 2992.5,4657.51 15,0 7.5,7.5 15,0 7.5,7.5 15,0 7.5,7.5 15,0 7.5,7.5 7.5,0 7.5,7.5 37.5,0 7.5,7.5 60,0 7.5,7.5 60,0 7.5,7.5 45,0 7.51,7.5 52.5,0 7.5,7.5 30,0 7.5,7.5 67.5,0 7.5,-7.5 67.5,0 7.5,-7.5 15,0 7.5,-7.5 -7.5,-7.5 -15,0 -15,-15 0,-7.5 22.5,0 -7.5,0 75,0" />
            <path
               inkscape:connector-curvature="0"
               id="path4348"
               style="fill:none;stroke:#ff0000;stroke-width:5.00001001;stroke-linecap:butt;stroke-linejoin:round;stroke-miterlimit:10;stroke-dasharray:none;stroke-opacity:1"
               d="m 2250,4552.51 45,0 7.5,7.5 75,0 7.5,7.5 142.5,0 7.5,7.5 90,0 7.5,7.5 30,0 7.5,7.5 15,0 7.5,7.5 22.5,0 7.5,7.5 15,0 7.5,7.5 22.5,0 7.5,7.5 30,0 7.5,7.5 30,0 7.5,7.5 37.5,0 7.5,7.5 37.5,0 7.5,7.5 37.5,0 7.5,7.5 7.5,0" />
            <path
               inkscape:connector-curvature="0"
               id="path4350"
               style="fill:none;stroke:#ff0000;stroke-width:5.00001001;stroke-linecap:butt;stroke-linejoin:round;stroke-miterlimit:10;stroke-dasharray:none;stroke-opacity:1"
               d="m 2062.5,3990.01 -7.5,0 -7.5,7.5 -7.5,0 -7.5,7.5 -7.5,7.5 -7.5,0 -7.5,7.5 -7.5,0 -7.5,7.5 -7.5,7.5 -15,15 0,22.5 -7.5,7.5 0,15 -7.5,7.5 0,97.5 -7.5,7.5 -7.5,7.5 -7.5,0 -7.5,7.5 -7.5,7.5 -7.5,0 -7.5,7.5 -7.5,7.5 -7.5,0 -7.5,7.5 -15,15 0,7.5 -15,15 0,7.5 -7.5,7.5 0,30 7.5,7.5 7.5,0 0,30 -7.5,7.5 0,15 -7.5,7.5 0,30 -7.5,7.5 0,15 -7.5,0 15,15 0,7.5 15,15 0,7.5 7.5,7.5 22.5,0 7.5,7.5 22.5,0 7.5,7.5 37.5,0 7.5,7.5 45,0 7.5,7.5 82.5,0 7.5,7.5 90,0 7.5,7.5 37.5,0" />
            <path
               inkscape:connector-curvature="0"
               id="path4352"
               style="fill:none;stroke:#ff0000;stroke-width:5.00001001;stroke-linecap:butt;stroke-linejoin:round;stroke-miterlimit:10;stroke-dasharray:none;stroke-opacity:1"
               d="m 2550,2962.5 -7.5,0 -7.5,-7.5 -7.5,-7.5 -15,-15 0,-7.5 -7.5,0 -7.5,-7.5 -7.5,0 -7.5,-7.5 -7.5,0 -7.5,-7.5 -7.5,0 -7.5,-7.5 -7.5,0 -7.5,-7.5 -127.5,0 -7.5,7.5 -7.5,0 -7.5,7.5 -7.5,7.5 -15,15 0,67.5 -7.5,7.5 -7.5,7.5 -7.5,7.5 -7.5,7.5 -7.5,7.5 -7.5,7.5 -7.5,7.5 -7.5,7.5 -7.5,7.5 -15,15 0,15 -15,15 0,45 -7.5,7.5 0,37.51 7.5,7.5 0,45 7.5,7.5 0,15 7.5,7.5 0,37.5 7.5,7.5 0,22.5 7.5,7.5 0,22.5 7.5,7.5 0,105 -7.5,7.5 0,105 7.5,7.5 0,75 7.5,7.5 0,45 -7.5,0 -7.5,7.5 -7.5,7.5 -7.5,0 -7.5,7.5 -7.5,0 -7.5,7.5 -7.5,7.5 -7.5,0 -7.5,7.5 -7.5,0 -7.5,7.5 -7.5,7.5 -15,15 0,7.5 -7.5,7.5 -15,15 0,52.5 -7.5,7.5 0,22.5 7.5,7.5 0,45 -7.5,7.5 -7.5,7.5" />
            <path
               inkscape:connector-curvature="0"
               id="path4354"
               style="fill:none;stroke:#ff0000;stroke-width:5.00001001;stroke-linecap:butt;stroke-linejoin:round;stroke-miterlimit:10;stroke-dasharray:none;stroke-opacity:1"
               d="m 3292.5,3180.01 -7.5,0 -7.5,-7.5 -7.5,0 -7.5,-7.5 -15,0 -7.5,-7.51 -7.5,0 -7.5,-7.5 -7.5,0 -7.5,-7.5 -7.5,0 -7.5,-7.5 -22.5,0 -7.5,-7.5 -15,0 -7.5,-7.5 -15,0 -7.5,-7.5 -22.5,0 -7.5,-7.5 -15,0 -7.5,-7.5 -15,0 -7.5,-7.5 -22.5,0 -7.5,-7.5 -22.5,0 -7.5,-7.5 -7.5,0 -7.5,-7.5 -15,0 -7.5,-7.5 -15,0 -7.5,-7.5 -22.5,0 -7.5,-7.5 -22.5,0 -7.5,-7.5 -45,0 -7.5,-7.5 -37.5,0 -7.5,-7.5 -22.5,0 -7.5,-7.5 -30,0 -7.5,-7.5 -22.5,0 -7.5,-7.5 -30,0 -7.5,-7.5 -7.5,0 -7.5,-7.5 -15,0 -7.5,-7.5 -7.5,0 -7.5,-7.5 -15,0 -7.5,-7.5 -7.5,0" />
            <path
               inkscape:connector-curvature="0"
               id="path4356"
               style="fill:none;stroke:#ff0000;stroke-width:5.00001001;stroke-linecap:butt;stroke-linejoin:round;stroke-miterlimit:10;stroke-dasharray:none;stroke-opacity:1"
               d="m 4035.01,3480.01 -15,0 -7.5,-7.5 -22.5,0 -7.5,-7.5 -22.5,0 -7.5,-7.5 -22.5,0 -7.5,-7.5 -30,0 -7.5,-7.5 -15,0 -7.5,-7.5 -15,0 -7.5,-7.5 -15,0 -7.5,-7.5 -15,0 -7.5,-7.5 -22.5,0 -7.5,-7.5 -15,0 -7.5,-7.5 -15,0 -7.5,-7.5 -7.5,0 -7.5,-7.5 -7.5,0 -7.5,-7.5 -7.5,0 -7.5,-7.5 -7.5,-7.5 -7.5,0 -7.5,-7.5 -7.5,-7.5 -7.5,0 -7.5,-7.5 -7.5,0 -7.5,-7.5 -7.5,-7.5 -7.5,0 -7.5,-7.5 -7.5,-7.5 -7.5,0 -7.5,-7.5 -7.5,-7.5 -15,0 -7.5,-7.5 -7.5,-7.5 -7.5,0 -7.5,-7.5 -7.5,0 -7.5,-7.5 -7.5,0 -7.5,-7.5 -7.5,-7.5 -7.5,0 -7.5,-7.5 -15,0 -7.5,-7.5 -15,0 -7.5,-7.5 -15,0 -7.5,-7.5 -15,0 -7.5,-7.5 -15,0 -7.5,-7.5 -7.5,0 -7.5,-7.5 -22.51,0 -7.5,-7.5 -7.5,0 -7.5,-7.5" />
            <path
               inkscape:connector-curvature="0"
               id="path4358"
               style="fill:none;stroke:#ff0000;stroke-width:5.00001001;stroke-linecap:butt;stroke-linejoin:round;stroke-miterlimit:10;stroke-dasharray:none;stroke-opacity:1"
               d="m 4567.51,4027.51 0,-15 -7.5,-7.5 7.5,-7.5 7.5,0 7.5,-7.5 7.5,-7.5 7.5,0 15,-15 0,-22.5 15,-15 0,-37.5 7.5,-7.5 0,-30 7.5,-7.5 -7.5,-7.5 0,-52.5 -7.5,-7.5 -7.5,-7.5 -7.5,0 -7.5,-7.5 -7.5,-7.5 -7.5,0 -15,-15 7.5,0 -7.5,0 -7.5,-7.5 -30,0 -7.5,-7.5 -22.5,0 -7.5,-7.5 -22.5,0 -7.5,-7.5 -7.5,0 -7.5,-7.5 -7.5,-7.5 -7.5,-7.5 -7.5,0 -7.5,-7.5 -15,0 -7.5,-7.5 -15,0 -7.5,-7.5 -15,0 -7.5,-7.5 -15,-15 0,-7.5 -7.5,-7.5 -7.5,-7.5 -7.5,-7.5 -7.5,-7.5 -7.5,0 -7.5,-7.5 -7.5,-7.5 -7.5,-7.5 -7.5,0 -7.5,-7.5 -7.5,0 -7.5,-7.5 -7.5,0 -7.5,-7.5 -7.5,-7.5 -7.5,0 -7.5,-7.5 -7.5,0 -7.5,-7.5 -7.5,0 -7.5,-7.5 -7.5,0 -7.5,-7.5 -15,0 -7.5,-7.5 -7.5,0 -7.5,-7.5 -7.5,0 -7.5,-7.5 -15,0 -7.5,-7.5 -15,0 -7.5,-7.5 -22.5,0 -7.5,-7.5 -7.5,0" />
            <path
               inkscape:connector-curvature="0"
               id="path4360"
               style="fill:none;stroke:#ff0000;stroke-width:5.00001001;stroke-linecap:butt;stroke-linejoin:round;stroke-miterlimit:10;stroke-dasharray:none;stroke-opacity:1"
               d="m 3915.01,4462.51 7.5,-7.5 15,0 7.5,-7.5 7.5,0 7.5,-7.5 15,0 7.5,-7.5 7.5,0 7.5,-7.5 7.5,0 7.5,-7.5 7.5,-7.5 7.5,-7.5 7.5,-7.5 15,0 7.5,-7.5 15,0 7.5,-7.5 15,0 7.5,-7.5 22.5,0 7.5,-7.5 7.5,-7.5 7.5,-7.5 7.5,-7.5 7.5,-7.5 7.5,-7.5 7.5,-7.5 7.5,0 7.5,-7.5 7.5,0 7.5,-7.5 7.5,0 7.5,-7.5 7.5,0 7.5,-7.5 7.5,0 7.5,-7.5 15,0 7.5,-7.5 7.5,0 7.5,-7.5 7.5,0 7.5,-7.5 15,0 7.5,-7.5 7.5,0 7.5,-7.5 7.5,0 7.5,-7.5 7.5,0 7.5,-7.5 7.5,0 7.5,-7.5 7.5,0 15,-15 0,-7.5 7.5,-7.5 15,-15 -7.5,0 15,0 7.5,-7.5 15,0 7.5,-7.5 22.5,0 7.5,-7.5 75,0 7.5,-7.5 15,-15 0,-45 -7.5,-7.5 0,-15 -7.5,-7.5 0,-15 -15,-15" />
            <path
               inkscape:connector-curvature="0"
               id="path4362"
               style="fill:none;stroke:#ff0000;stroke-width:5.00001001;stroke-linecap:butt;stroke-linejoin:round;stroke-miterlimit:10;stroke-dasharray:none;stroke-opacity:1"
               d="m 3667.51,4815.01 -7.5,0 30,0 7.5,-7.5 -7.5,-7.5 -7.5,-7.5 0,15 7.5,-7.5 15,0 7.5,-7.5 15,0 7.5,-7.5 0,-15 7.5,-7.5 0,-15 15,-15 0,-7.5 15,-15 0,-15 15,-15 0,-22.5 7.5,-7.5 0,-45 7.5,-7.5 7.5,0 7.5,-7.5 7.5,0 7.5,-7.5 7.5,-7.5 7.5,0 7.5,-7.5 7.5,0 7.5,-7.5 15,-15 0,-7.5 15,-15 0,-7.5 7.5,-7.5 0,-22.5 7.5,-7.5 0,-15" />
            <path
               inkscape:connector-curvature="0"
               id="path4364"
               style="fill:none;stroke:#0000ff;stroke-width:5.00001001;stroke-linecap:butt;stroke-linejoin:round;stroke-miterlimit:10;stroke-dasharray:none;stroke-opacity:1"
               d="m 2572.5,4575.01 52.5,15 67.5,15 120,22.5 120,15 60,22.5 60,22.5 127.5,15 180.01,22.5 180,0 120,7.5 0,-105 75,-45 0,-52.5 45,-52.5 0,-45 120,-45 120,-22.5 120,-30 0,-112.5 120,-52.5 0,-120 120,-60 0,-135 120,-52.5 7.5,-52.5 0,-45 45,-52.5 0,-195 75,-60 -75,-45 0,-15 -45,-22.5 -127.5,-15 -240,-37.5 -120,-30 -240,-30 -45,-37.5 -195,-30.01 -120,-37.5 -60,-30 -180.01,-22.5 -120,-30 -60,-45 -60,-52.5 -120,-37.5 -127.5,-45 -67.5,-37.5 -172.5,-7.5 0,30 -120,60 0,127.5 -120,67.5 0,360.01 -120,82.5 0,150 -120,67.5 0,150 -120,67.5 0,142.5 -60,75 0,135 -60,67.5 0,67.5 60,52.5 0,45 60,30 240,22.5 120,22.5 120,22.5 120,15 172.5,15 67.5,15 240,30 60,15 187.5,22.5 120,22.5 120.01,22.5 120,15 120,7.5 67.5,7.5 172.5,0 0,-30 120,-60 0,-270 120,-60 0,-105 120,-52.5 0,-45 120,-60 0,-112.5 120,-45 52.5,0 0,22.5 0,-52.5 75,-30 0,-135 -75,-60 0,-75" />
            <path
               inkscape:connector-curvature="0"
               id="path4366"
               style="fill:none;stroke:#0000ff;stroke-width:5.00001001;stroke-linecap:butt;stroke-linejoin:round;stroke-miterlimit:10;stroke-dasharray:none;stroke-opacity:1"
               d="m 3660.01,4822.51 0,-7.5 0,37.5 67.5,-45 0,-75 52.5,-60 0,-52.5 120,-30 0,-97.5 120,-30 0,-30 120,-37.5 0,-52.5 120,-45 120,-52.5 0,-37.5 120,-7.5 52.5,-7.5 0,-157.5 75,-45 0,-172.5 -75,-30 0,-15 -45,-45 0,-30 -127.5,-30 0,-45 -120,-60 -120,-45 -240,-52.5 -120,-45 -45,-45 -75,-45 -120,-52.5 -180,-52.5 -60.01,-45 -120,-22.51 -120,-37.5 -60,-37.5 -180,-30 -127.5,-30 -67.5,-52.5 -52.5,-60 -120,-30 -120,22.5 0,105 -120,52.5 0,652.51 -120,52.5 0,195 -120,45 0,150 -120,52.5 0,112.5 -60,52.5 0,60 60,30 120,7.5 120,22.5 120,22.5 120,22.5 120,15 120,22.5" />
          </g>
        </g>
        <g
           id="g4368">
          <g
             clip-path="url(#clipPath4372)"
             id="g4370">
            <g
               transform="scale(10,10)"
               id="g4376" />
            <path
               inkscape:connector-curvature="0"
               id="path4378"
               style="fill:#ffffff;fill-opacity:1;fill-rule:evenodd;stroke:none"
               d="m 3622.51,4920.01 1102.5,0 0,315 -1102.5,0 0,-315 z" />
            <path
               inkscape:connector-curvature="0"
               id="path4380"
               style="fill:none;stroke:#ffffff;stroke-width:5.00001001;stroke-linecap:butt;stroke-linejoin:round;stroke-miterlimit:10;stroke-dasharray:none;stroke-opacity:1"
               d="m 3622.51,4920.01 0,315 1102.5,0 0,-315 -1102.5,0" />
            <path
               inkscape:connector-curvature="0"
               id="path4382"
               style="fill:none;stroke:#000000;stroke-width:5.00001001;stroke-linecap:butt;stroke-linejoin:round;stroke-miterlimit:10;stroke-dasharray:none;stroke-opacity:1"
               d="m 3622.51,5235.01 1102.5,0" />
            <path
               inkscape:connector-curvature="0"
               id="path4384"
               style="fill:none;stroke:#000000;stroke-width:5.00001001;stroke-linecap:butt;stroke-linejoin:round;stroke-miterlimit:10;stroke-dasharray:none;stroke-opacity:1"
               d="m 3622.51,4920.01 1102.5,0" />
            <path
               inkscape:connector-curvature="0"
               id="path4386"
               style="fill:none;stroke:#000000;stroke-width:5.00001001;stroke-linecap:butt;stroke-linejoin:round;stroke-miterlimit:10;stroke-dasharray:none;stroke-opacity:1"
               d="m 4725.01,4920.01 0,315" />
            <path
               inkscape:connector-curvature="0"
               id="path4388"
               style="fill:none;stroke:#000000;stroke-width:5.00001001;stroke-linecap:butt;stroke-linejoin:round;stroke-miterlimit:10;stroke-dasharray:none;stroke-opacity:1"
               d="m 3622.51,4920.01 0,315" />
            <path
               inkscape:connector-curvature="0"
               id="path4390"
               style="fill:none;stroke:#000000;stroke-width:5.00001001;stroke-linecap:butt;stroke-linejoin:round;stroke-miterlimit:10;stroke-dasharray:none;stroke-opacity:1"
               d="m 3622.51,4920.01 1102.5,0" />
            <path
               inkscape:connector-curvature="0"
               id="path4392"
               style="fill:none;stroke:#000000;stroke-width:5.00001001;stroke-linecap:butt;stroke-linejoin:round;stroke-miterlimit:10;stroke-dasharray:none;stroke-opacity:1"
               d="m 3622.51,4920.01 0,315" />
            <path
               inkscape:connector-curvature="0"
               id="path4394"
               style="fill:none;stroke:#000000;stroke-width:5.00001001;stroke-linecap:butt;stroke-linejoin:round;stroke-miterlimit:10;stroke-dasharray:none;stroke-opacity:1"
               d="m 3622.51,5235.01 1102.5,0" />
            <path
               inkscape:connector-curvature="0"
               id="path4396"
               style="fill:none;stroke:#000000;stroke-width:5.00001001;stroke-linecap:butt;stroke-linejoin:round;stroke-miterlimit:10;stroke-dasharray:none;stroke-opacity:1"
               d="m 3622.51,4920.01 1102.5,0" />
            <path
               inkscape:connector-curvature="0"
               id="path4398"
               style="fill:none;stroke:#000000;stroke-width:5.00001001;stroke-linecap:butt;stroke-linejoin:round;stroke-miterlimit:10;stroke-dasharray:none;stroke-opacity:1"
               d="m 4725.01,4920.01 0,315" />
            <path
               inkscape:connector-curvature="0"
               id="path4400"
               style="fill:none;stroke:#000000;stroke-width:5.00001001;stroke-linecap:butt;stroke-linejoin:round;stroke-miterlimit:10;stroke-dasharray:none;stroke-opacity:1"
               d="m 3622.51,4920.01 0,315" />
            <g
               transform="scale(10,10)"
               id="g4402">
              <text
                 id="text4404"
                 style="font-variant:normal;font-weight:normal;font-size:10px;font-family:'Helvetica Neue LT Std';-inkscape-font-specification:Helvetica;writing-mode:lr-tb;fill:#000000;fill-opacity:1;fill-rule:nonzero;stroke:none"
                 transform="matrix(1,0,0,-1,401.251,510.751)">
                <tspan
                   id="tspan4406"
                   sodipodi:role="line"
                   y="0"
                   x="0 6.6700001 11.67 14.45 16.67 25 30.559999 33.34 38.900002">Estimated</tspan>
              </text>
            </g>
          </g>
        </g>
        <g
           id="g4408">
          <g
             clip-path="url(#clipPath4412)"
             id="g4410">
            <path
               inkscape:connector-curvature="0"
               id="path4416"
               style="fill:none;stroke:#ff0000;stroke-width:5.00001001;stroke-linecap:butt;stroke-linejoin:round;stroke-miterlimit:10;stroke-dasharray:none;stroke-opacity:1"
               d="m 3682.51,5152.51 300,0" />
          </g>
        </g>
        <g
           id="g4418">
          <g
             clip-path="url(#clipPath4422)"
             id="g4420">
            <g
               transform="scale(10,10)"
               id="g4426">
              <text
                 id="text4428"
                 style="font-variant:normal;font-weight:normal;font-size:10px;font-family:'Helvetica Neue LT Std';-inkscape-font-specification:Helvetica;writing-mode:lr-tb;fill:#000000;fill-opacity:1;fill-rule:nonzero;stroke:none"
                 transform="matrix(1,0,0,-1,401.251,496.501)">
                <tspan
                   id="tspan4430"
                   sodipodi:role="line"
                   y="0"
                   x="0 7.7800002 14.45 21.120001 23.9 32.23 37.790001 43.349998 48.349998 53.91 57.240002 62.799999">GPS Measured</tspan>
              </text>
            </g>
          </g>
        </g>
        <g
           id="g4432">
          <g
             clip-path="url(#clipPath4436)"
             id="g4434">
            <path
               inkscape:connector-curvature="0"
               id="path4440"
               style="fill:none;stroke:#0000ff;stroke-width:5.00001001;stroke-linecap:butt;stroke-linejoin:round;stroke-miterlimit:10;stroke-dasharray:none;stroke-opacity:1"
               d="m 3682.51,5010.01 300,0" />
          </g>
        </g>
      </g>
    </g>
  </g>
</svg>
