<?xml version="1.0" encoding="UTF-8" standalone="no"?>
<!-- Created with Inkscape (http://www.inkscape.org/) -->

<svg
   xmlns:osb="http://www.openswatchbook.org/uri/2009/osb"
   xmlns:dc="http://purl.org/dc/elements/1.1/"
   xmlns:cc="http://creativecommons.org/ns#"
   xmlns:rdf="http://www.w3.org/1999/02/22-rdf-syntax-ns#"
   xmlns:svg="http://www.w3.org/2000/svg"
   xmlns="http://www.w3.org/2000/svg"
   xmlns:sodipodi="http://sodipodi.sourceforge.net/DTD/sodipodi-0.dtd"
   xmlns:inkscape="http://www.inkscape.org/namespaces/inkscape"
   width="25.251183mm"
   height="24.978088mm"
   viewBox="0 0 89.472692 88.505041"
   id="svg2"
   version="1.1"
   inkscape:version="0.92.1 r15371"
   sodipodi:docname="thrustTest.svg">
  <defs
     id="defs4">
    <linearGradient
       id="linearGradient5777"
       osb:paint="solid">
      <stop
         style="stop-color:#000000;stop-opacity:0.8607595;"
         offset="0"
         id="stop5779" />
    </linearGradient>
    <linearGradient
       id="linearGradient5771"
       osb:paint="solid">
      <stop
         style="stop-color:#0000ff;stop-opacity:1;"
         offset="0"
         id="stop5773" />
    </linearGradient>
  </defs>
  <sodipodi:namedview
     id="base"
     pagecolor="#ffffff"
     bordercolor="#666666"
     borderopacity="1.0"
     inkscape:pageopacity="0.0"
     inkscape:pageshadow="2"
     inkscape:zoom="4"
     inkscape:cx="19.325982"
     inkscape:cy="29.148408"
     inkscape:document-units="px"
     inkscape:current-layer="g4565"
     showgrid="false"
     fit-margin-top="0"
     fit-margin-left="0"
     fit-margin-bottom="0"
     fit-margin-right="0"
     inkscape:window-width="1366"
     inkscape:window-height="705"
     inkscape:window-x="-8"
     inkscape:window-y="-8"
     inkscape:window-maximized="1" />
  <metadata
     id="metadata7">
    <rdf:RDF>
      <cc:Work
         rdf:about="">
        <dc:format>image/svg+xml</dc:format>
        <dc:type
           rdf:resource="http://purl.org/dc/dcmitype/StillImage" />
        <dc:title />
      </cc:Work>
    </rdf:RDF>
  </metadata>
  <g
     inkscape:label="Capa 1"
     inkscape:groupmode="layer"
     id="layer1"
     transform="translate(-132.90912,-118.88681)">
    <g
       transform="matrix(1.25,0,0,-1.25,160.84867,64.137719)"
       inkscape:label="quadcopter1"
       id="g4563">
      <g
         id="g4565">
        <path
           style="fill:#5f5f5f;fill-opacity:1;stroke:#000000;stroke-width:0.075;stroke-linecap:butt;stroke-linejoin:miter;stroke-miterlimit:4;stroke-dasharray:none;stroke-opacity:1"
           d="m -11.876699,-95.934238 -2.993527,-5.184932 23.2854893,-13.44389 35.9705137,9.63827 -2.99595,5.104615"
           id="path5085"
           inkscape:connector-curvature="0" />
        <path
           style="fill:#5f5f5f;fill-opacity:1;stroke:#ffffff;stroke-width:0.75px;stroke-linecap:butt;stroke-linejoin:miter;stroke-opacity:0"
           d="M -11.876699,-95.934237 19.907896,-87.41758 41.389827,-99.820177 9.4761368,-108.2623"
           id="path5073"
           inkscape:connector-curvature="0"
           sodipodi:nodetypes="cccc" />
        <path
           style="fill:none;stroke:#000000;stroke-width:7.94999981;stroke-linecap:butt;stroke-linejoin:miter;stroke-miterlimit:4;stroke-dasharray:none;stroke-opacity:1"
           d="M 13.995392,-78.40004 V -97.719209"
           id="path5069"
           inkscape:connector-curvature="0" />
        <text
           id="text4641"
           style="font-variant:normal;font-weight:normal;font-size:5.58624601px;font-family:Verdana;-inkscape-font-specification:Verdana;writing-mode:lr-tb;fill:#000000;fill-opacity:1;fill-rule:nonzero;stroke:none;stroke-width:0.50784051"
           transform="scale(1,-1)"
           x="11.559196"
           y="47.834221">
          <tspan
             id="tspan4639"
             y="47.834221"
             x="11.559196"
             style="font-style:italic;font-variant:normal;font-weight:normal;font-stretch:normal;font-size:6.09408617px;font-family:'Times New Roman';-inkscape-font-specification:'Times New Roman, Italic';stroke-width:0.50784051">F</tspan>
        </text>
        <text
           id="text4645"
           style="font-variant:normal;font-weight:normal;font-size:4.06272459px;font-family:Verdana;-inkscape-font-specification:Verdana;writing-mode:lr-tb;fill:#000000;fill-opacity:1;fill-rule:nonzero;stroke:none;stroke-width:0.50784051"
           transform="scale(1,-1)"
           x="14.574549"
           y="49.180836">
          <tspan
             id="tspan4643"
             y="49.180836"
             x="14.574549"
             style="font-style:italic;font-variant:normal;font-weight:normal;font-stretch:normal;font-family:'Times New Roman';-inkscape-font-specification:'Times New Roman,  Italic';stroke-width:0.50784051">M<tspan
   style="font-size:3.04704309px;stroke-width:0.50784051"
   id="tspan5067">i</tspan>
</tspan>
        </text>
        <g
           transform="matrix(1,0,0,-1,-22.349625,17.037036)"
           id="g4699">
          <path
             inkscape:connector-curvature="0"
             id="path4701"
             style="fill:#000000;fill-opacity:1;fill-rule:nonzero;stroke:#302b30;stroke-width:1.88945603;stroke-linecap:butt;stroke-linejoin:miter;stroke-miterlimit:4;stroke-dasharray:none;stroke-opacity:1"
             d="m 44.258,94.879 c 0,1.695 -3.692,3.066 -8.246,3.066 -4.555,0 -8.25,-1.371 -8.25,-3.066 0,-1.695 3.695,-3.066 8.25,-3.066 4.554,0 8.246,1.371 8.246,3.066 z" />
        </g>
        <g
           transform="matrix(1,0,0,-1,-22.349625,17.037036)"
           id="g4703">
          <path
             inkscape:connector-curvature="0"
             id="path4705"
             style="fill:#000000;fill-opacity:1;fill-rule:nonzero;stroke:#000000;stroke-width:1.85289395;stroke-linecap:butt;stroke-linejoin:miter;stroke-miterlimit:4;stroke-dasharray:none;stroke-opacity:1"
             d="m 43.969,90.871 c 0,1.66 -3.621,3.008 -8.086,3.008 -4.469,0 -8.09,-1.348 -8.09,-3.008 0,-1.66 3.621,-3.008 8.09,-3.008 4.465,0 8.086,1.348 8.086,3.008 z" />
        </g>
        <g
           transform="matrix(1,0,0,-1,-22.349625,17.037036)"
           id="g4707">
          <path
             inkscape:connector-curvature="0"
             id="path4709"
             style="fill:#000000;fill-opacity:1;fill-rule:nonzero;stroke:#000000;stroke-width:1.812518;stroke-linecap:butt;stroke-linejoin:miter;stroke-miterlimit:4;stroke-dasharray:none;stroke-opacity:1"
             d="m 43.727,93.051 c 0,1.625 -3.543,2.941 -7.911,2.941 -4.371,0 -7.914,-1.316 -7.914,-2.941 0,-1.625 3.543,-2.942 7.914,-2.942 4.368,0 7.911,1.317 7.911,2.942 z" />
        </g>
        <g
           transform="matrix(1,0,0,-1,-22.349625,17.037036)"
           id="g4711">
          <path
             inkscape:connector-curvature="0"
             id="path4713"
             style="fill:none;stroke:#302b30;stroke-width:0.80000001;stroke-linecap:butt;stroke-linejoin:miter;stroke-miterlimit:4;stroke-dasharray:none;stroke-opacity:1"
             d="m 27.219,89.68 v 5.504" />
        </g>
        <g
           transform="matrix(1,0,0,-1,-22.349625,17.037036)"
           id="g4715">
          <path
             inkscape:connector-curvature="0"
             id="path4717"
             style="fill:none;stroke:#302b30;stroke-width:0.80000001;stroke-linecap:butt;stroke-linejoin:miter;stroke-miterlimit:4;stroke-dasharray:none;stroke-opacity:1"
             d="m 44.805,89.613 v 5.504" />
        </g>
        <g
           transform="matrix(1,0,0,-1,-22.349625,17.037036)"
           id="g4719">
          <path
             inkscape:connector-curvature="0"
             id="path4721"
             style="fill:#000000;fill-opacity:1;fill-rule:nonzero;stroke:#302b30;stroke-width:1.88945603;stroke-linecap:butt;stroke-linejoin:miter;stroke-miterlimit:4;stroke-dasharray:none;stroke-opacity:1"
             d="m 44.258,89.754 c 0,1.691 -3.692,3.066 -8.246,3.066 -4.555,0 -8.25,-1.375 -8.25,-3.066 0,-1.695 3.695,-3.07 8.25,-3.07 4.554,0 8.246,1.375 8.246,3.07 z" />
        </g>
        <g
           transform="matrix(1,0,0,-1,-22.349625,17.037036)"
           id="g4839">
          <path
             inkscape:connector-curvature="0"
             id="path4841"
             style="fill:none;stroke:#000000;stroke-width:0.80000001;stroke-linecap:butt;stroke-linejoin:miter;stroke-miterlimit:4;stroke-dasharray:0.8, 2.4;stroke-dashoffset:0;stroke-opacity:1"
             d="M 36.359,90.527 V 68.816" />
        </g>
        <g
           transform="matrix(0,-1,-1,0,-22.349625,17.037036)"
           id="g4843">
          <path
             inkscape:connector-curvature="0"
             id="path4845"
             style="fill:#000000;fill-opacity:1;fill-rule:evenodd;stroke:#000000;stroke-width:0.80000001;stroke-linecap:butt;stroke-linejoin:miter;stroke-miterlimit:4;stroke-dasharray:none;stroke-opacity:1"
             d="m 76.816,-36.359 3.2,-3.2 -11.2,3.2 11.2,3.199 z" />
        </g>
        <path
           inkscape:connector-curvature="0"
           id="path4887"
           style="fill:#000000;fill-opacity:0.860759;fill-rule:nonzero;stroke:none"
           d="m 12.201375,-72.533294 c -0.313,-0.617 -8.2380001,2.785 -17.6990001,7.602 -9.4649999,4.812 -16.8789999,9.218 -16.5669999,9.836 0.317,0.617 8.242,-2.786 17.7029999,-7.602 9.461,-4.816 16.8750001,-9.219 16.5630001,-9.836 z" />
        <g
           transform="matrix(1,-0.508938,-0.508938,-1,-22.349625,17.037036)"
           id="g4889">
          <path
             inkscape:connector-curvature="0"
             id="path4891"
             style="fill:none;stroke:#000000;stroke-width:0.49158001;stroke-linecap:square;stroke-linejoin:miter;stroke-miterlimit:4;stroke-dasharray:1.96632, 0.49158;stroke-dashoffset:0;stroke-opacity:1"
             d="m 63.65,57.176 c 0.001,0.617 -7.669,1.118 -17.131,1.117 -9.463,0.004 -17.133,-0.499 -17.134,-1.115 0.002,-0.618 7.672,-1.12 17.134,-1.119 9.461,0.001 17.13,0.501 17.131,1.117 z" />
        </g>
        <path
           inkscape:connector-curvature="0"
           id="path4893"
           style="fill:#000000;fill-opacity:0.860759;fill-rule:nonzero;stroke:none"
           d="m 48.939375,-91.002294 c -0.312,-0.617 -8.238,2.785 -17.699,7.602 -9.461,4.816 -16.879,9.219 -16.563,9.836 0.313,0.617 8.239,-2.785 17.7,-7.602 9.461,-4.816 16.878,-9.219 16.562,-9.836 z" />
        <g
           transform="matrix(1,-0.508938,-0.508938,-1,-22.349625,17.037036)"
           id="g4895">
          <path
             inkscape:connector-curvature="0"
             id="path4897"
             style="fill:none;stroke:#000000;stroke-width:0.49158001;stroke-linecap:square;stroke-linejoin:miter;stroke-miterlimit:4;stroke-dasharray:1.96632, 0.49158;stroke-dashoffset:0;stroke-opacity:1"
             d="m 100.296,56.995 c 10e-4,0.616 -7.669,1.118 -17.131,1.117 -9.461,-0.001 -17.133,-0.5 -17.131,-1.118 -0.001,-0.616 7.669,-1.118 17.131,-1.117 9.461,0.002 17.133,0.5 17.131,1.118 z" />
        </g>
        <ellipse
           style="opacity:1;fill:#000000;fill-opacity:1;fill-rule:nonzero;stroke:#000000;stroke-width:1.16557217;stroke-miterlimit:4;stroke-dasharray:none;stroke-dashoffset:0;stroke-opacity:1"
           id="path5071"
           cx="13.995515"
           cy="97.619698"
           transform="scale(1,-1)"
           rx="3.3922138"
           ry="0.97217935" />
        <path
           style="fill:none;stroke:#000000;stroke-width:0.75px;stroke-linecap:butt;stroke-linejoin:miter;stroke-opacity:0"
           d="M -11.876699,-94.434238 9.4761368,-106.7623"
           id="path5075"
           inkscape:connector-curvature="0" />
        <path
           style="fill:none;stroke:#000000;stroke-width:0.075;stroke-linecap:butt;stroke-linejoin:miter;stroke-miterlimit:4;stroke-dasharray:none;stroke-opacity:1"
           d="M -11.876699,-95.934238 9.4761368,-108.2623 41.389827,-99.820175"
           id="path5095"
           inkscape:connector-curvature="0" />
        <path
           style="fill:none;stroke:#000000;stroke-width:0.075;stroke-linecap:butt;stroke-linejoin:miter;stroke-miterlimit:4;stroke-dasharray:none;stroke-opacity:1"
           d="m 9.4761368,-108.2623 -1.0608735,-6.30076"
           id="path5097"
           inkscape:connector-curvature="0" />
        <text
           xml:space="preserve"
           style="font-style:normal;font-weight:normal;font-size:3.8394444px;line-height:1.25;font-family:sans-serif;letter-spacing:0px;word-spacing:0px;fill:#000000;fill-opacity:1;stroke:none;stroke-width:0.28795832"
           x="-53.924309"
           y="160.27371"
           id="text5101"
           transform="matrix(1.4682964,0.39939199,0.56047742,-0.52860567,0,0)"><tspan
             sodipodi:role="line"
             id="tspan5099"
             x="-53.924309"
             y="160.27371"
             style="stroke-width:0.28795832">Scale (g)</tspan></text>
        <path
           style="fill:none;stroke:#000000;stroke-width:0.075;stroke-linecap:butt;stroke-linejoin:miter;stroke-opacity:1;stroke-miterlimit:4;stroke-dasharray:none"
           d="m 41.389827,-99.820177 -21.481931,12.402596 -31.784595,-8.516657"
           id="path4524"
           inkscape:connector-curvature="0" />
      </g>
    </g>
  </g>
</svg>
